HIERARCHY
ROOT Hips
{
  OFFSET -0.589095 22.1471 2.58842
  CHANNELS 6 Xposition Yposition Zposition Zrotation Xrotation Yrotation
  JOINT BN_Bip01_Pelvis
  {
    OFFSET -3.49357 -5.29363 -0.000213444
    CHANNELS 6 Xposition Yposition Zposition Zrotation Xrotation Yrotation
    JOINT BN_leg_R_01
    {
      OFFSET 10.8127 -7.82778 -6.29737
      CHANNELS 6 Xposition Yposition Zposition Zrotation Xrotation Yrotation
      JOINT BN_leg_R_02
      {
        OFFSET 8.91071 0 0
        CHANNELS 6 Xposition Yposition Zposition Zrotation Xrotation Yrotation
        JOINT BN_leg_R_03
        {
          OFFSET 15.6024 0 0
          CHANNELS 6 Xposition Yposition Zposition Zrotation Xrotation Yrotation
          JOINT BN_leg_R_04
          {
            OFFSET 9.68174 0 0
            CHANNELS 6 Xposition Yposition Zposition Zrotation Xrotation Yrotation
            JOINT BN_leg_R_05
            {
              OFFSET 10.6982 0 0
              CHANNELS 6 Xposition Yposition Zposition Zrotation Xrotation Yrotation
              JOINT BN_Leg_R_05Nub
              {
                OFFSET 11.1504 0 0
                CHANNELS 6 Xposition Yposition Zposition Zrotation Xrotation Yrotation
                End Site
                {
                  OFFSET 0 0 0
                }
              }
            }
          }
        }
      }
    }
    JOINT BN_leg_R_06
    {
      OFFSET 6.51511 -7.99898 -4.29089
      CHANNELS 6 Xposition Yposition Zposition Zrotation Xrotation Yrotation
      JOINT BN_Leg_R_07
      {
        OFFSET 9.03709 0 0
        CHANNELS 6 Xposition Yposition Zposition Zrotation Xrotation Yrotation
        JOINT BN_Leg_R_08
        {
          OFFSET 18.7638 0 0
          CHANNELS 6 Xposition Yposition Zposition Zrotation Xrotation Yrotation
          JOINT BN_Leg_R_09
          {
            OFFSET 10.9666 0 0
            CHANNELS 6 Xposition Yposition Zposition Zrotation Xrotation Yrotation
            JOINT BN_Leg_R_10
            {
              OFFSET 10.8726 0 0
              CHANNELS 6 Xposition Yposition Zposition Zrotation Xrotation Yrotation
              JOINT BN_Leg_R_10Nub
              {
                OFFSET 11.2648 0 0
                CHANNELS 6 Xposition Yposition Zposition Zrotation Xrotation Yrotation
                End Site
                {
                  OFFSET 0 0 0
                }
              }
            }
          }
        }
      }
    }
    JOINT BN_Leg_R_11
    {
      OFFSET 2.71429 -8.18693 -0.209972
      CHANNELS 6 Xposition Yposition Zposition Zrotation Xrotation Yrotation
      JOINT BN_Leg_R_12
      {
        OFFSET 9.8713 0 0
        CHANNELS 6 Xposition Yposition Zposition Zrotation Xrotation Yrotation
        JOINT BN_Leg_R_13
        {
          OFFSET 21.8657 0 0
          CHANNELS 6 Xposition Yposition Zposition Zrotation Xrotation Yrotation
          JOINT BN_Leg_R_14
          {
            OFFSET 11.0011 0 0
            CHANNELS 6 Xposition Yposition Zposition Zrotation Xrotation Yrotation
            JOINT BN_Leg_R_15
            {
              OFFSET 12.8798 0 0
              CHANNELS 6 Xposition Yposition Zposition Zrotation Xrotation Yrotation
              JOINT BN_Leg_R_15Nub
              {
                OFFSET 13.0642 0 0
                CHANNELS 6 Xposition Yposition Zposition Zrotation Xrotation Yrotation
                End Site
                {
                  OFFSET 0 0 0
                }
              }
            }
          }
        }
      }
    }
    JOINT BN_Leg_L_11
    {
      OFFSET 2.7143 8.18692 -0.209982
      CHANNELS 6 Xposition Yposition Zposition Zrotation Xrotation Yrotation
      JOINT BN_Leg_L_12
      {
        OFFSET 9.87129 0 0
        CHANNELS 6 Xposition Yposition Zposition Zrotation Xrotation Yrotation
        JOINT BN_Leg_L_13
        {
          OFFSET 21.8657 0 0
          CHANNELS 6 Xposition Yposition Zposition Zrotation Xrotation Yrotation
          JOINT BN_Leg_L_14
          {
            OFFSET 11.0011 0 0
            CHANNELS 6 Xposition Yposition Zposition Zrotation Xrotation Yrotation
            JOINT BN_Leg_L_15
            {
              OFFSET 12.8798 0 0
              CHANNELS 6 Xposition Yposition Zposition Zrotation Xrotation Yrotation
              JOINT BN_Leg_L_15Nub
              {
                OFFSET 13.0642 0 0
                CHANNELS 6 Xposition Yposition Zposition Zrotation Xrotation Yrotation
                End Site
                {
                  OFFSET 0 0 0
                }
              }
            }
          }
        }
      }
    }
    JOINT BN_leg_L_06
    {
      OFFSET 6.51511 7.99896 -4.29091
      CHANNELS 6 Xposition Yposition Zposition Zrotation Xrotation Yrotation
      JOINT BN_Leg_L_07
      {
        OFFSET 9.03709 0 0
        CHANNELS 6 Xposition Yposition Zposition Zrotation Xrotation Yrotation
        JOINT BN_Leg_L_08
        {
          OFFSET 18.7638 0 0
          CHANNELS 6 Xposition Yposition Zposition Zrotation Xrotation Yrotation
          JOINT BN_Leg_L_09
          {
            OFFSET 10.9666 0 0
            CHANNELS 6 Xposition Yposition Zposition Zrotation Xrotation Yrotation
            JOINT BN_Leg_L_10
            {
              OFFSET 10.8726 0 0
              CHANNELS 6 Xposition Yposition Zposition Zrotation Xrotation Yrotation
              JOINT BN_Leg_L_10Nub
              {
                OFFSET 11.2649 0 0
                CHANNELS 6 Xposition Yposition Zposition Zrotation Xrotation Yrotation
                End Site
                {
                  OFFSET 0 0 0
                }
              }
            }
          }
        }
      }
    }
    JOINT BN_leg_L_01
    {
      OFFSET 10.8127 7.82776 -6.29737
      CHANNELS 6 Xposition Yposition Zposition Zrotation Xrotation Yrotation
      JOINT BN_leg_L_02
      {
        OFFSET 8.91072 0 0
        CHANNELS 6 Xposition Yposition Zposition Zrotation Xrotation Yrotation
        JOINT BN_leg_L_03
        {
          OFFSET 15.6024 0 0
          CHANNELS 6 Xposition Yposition Zposition Zrotation Xrotation Yrotation
          JOINT BN_leg_L_04
          {
            OFFSET 9.68174 0 0
            CHANNELS 6 Xposition Yposition Zposition Zrotation Xrotation Yrotation
            JOINT BN_leg_L_05
            {
              OFFSET 10.6982 0 0
              CHANNELS 6 Xposition Yposition Zposition Zrotation Xrotation Yrotation
              JOINT BN_Leg_L_05Nub
              {
                OFFSET 11.1504 0 0
                CHANNELS 6 Xposition Yposition Zposition Zrotation Xrotation Yrotation
                End Site
                {
                  OFFSET 0 0 0
                }
              }
            }
          }
        }
      }
    }
    JOINT BN_Eye_L_01
    {
      OFFSET 28.5502 2.54627 -3.93739
      CHANNELS 6 Xposition Yposition Zposition Zrotation Xrotation Yrotation
      JOINT BN_Eye_L_02
      {
        OFFSET 2.30267 0 0
        CHANNELS 6 Xposition Yposition Zposition Zrotation Xrotation Yrotation
        JOINT BN_Eye_L_03
        {
          OFFSET 5.31894 0 0
          CHANNELS 6 Xposition Yposition Zposition Zrotation Xrotation Yrotation
          JOINT BN_Eye_L_04
          {
            OFFSET 9.71244 0 0
            CHANNELS 6 Xposition Yposition Zposition Zrotation Xrotation Yrotation
            End Site
            {
              OFFSET 0 0 0
            }
          }
        }
      }
    }
    JOINT BN_Eye_R_01
    {
      OFFSET 28.5502 -2.54612 -3.93738
      CHANNELS 6 Xposition Yposition Zposition Zrotation Xrotation Yrotation
      JOINT BN_Eye_R_02
      {
        OFFSET 2.30267 0 0
        CHANNELS 6 Xposition Yposition Zposition Zrotation Xrotation Yrotation
        JOINT BN_Eye_R_03
        {
          OFFSET 5.31896 0 0
          CHANNELS 6 Xposition Yposition Zposition Zrotation Xrotation Yrotation
          JOINT BN_Eye_R_04
          {
            OFFSET 9.71244 0 0
            CHANNELS 6 Xposition Yposition Zposition Zrotation Xrotation Yrotation
            End Site
            {
              OFFSET 0 0 0
            }
          }
        }
      }
    }
    JOINT BN_Arm_L_01
    {
      OFFSET 15.9737 8.03546 -8.36195
      CHANNELS 6 Xposition Yposition Zposition Zrotation Xrotation Yrotation
      JOINT BN_Arm_L_02
      {
        OFFSET 16.8869 0 0
        CHANNELS 6 Xposition Yposition Zposition Zrotation Xrotation Yrotation
        JOINT BN_Arm_L_03
        {
          OFFSET 8.42975 0 0
          CHANNELS 6 Xposition Yposition Zposition Zrotation Xrotation Yrotation
          JOINT BN_Arm_L_04
          {
            OFFSET 7.53864 -0.0312023 2.09083
            CHANNELS 6 Xposition Yposition Zposition Zrotation Xrotation Yrotation
            End Site
            {
              OFFSET 0 0 0
            }
          }
        }
      }
    }
    JOINT BN_Arm_R_01
    {
      OFFSET 14.7806 -6.70232 -9.44366
      CHANNELS 6 Xposition Yposition Zposition Zrotation Xrotation Yrotation
      JOINT BN_Arm_R_02
      {
        OFFSET 19.9827 0 0
        CHANNELS 6 Xposition Yposition Zposition Zrotation Xrotation Yrotation
        JOINT BN_Arm_R_03
        {
          OFFSET 17.4553 0 0
          CHANNELS 6 Xposition Yposition Zposition Zrotation Xrotation Yrotation
          JOINT BN_Arm_R_04
          {
            OFFSET 13.3834 -2.22657 7.3982
            CHANNELS 6 Xposition Yposition Zposition Zrotation Xrotation Yrotation
            End Site
            {
              OFFSET 0 0 0
            }
          }
        }
      }
    }
  }
}
MOTION
Frames:	4
Frame Time:	0.0333333
-20.7244 22.6378 -0.219456 -0 -0.00379759 -0 -3.49325 -8.0258 0 -163.39 -84.4569 153.045 10.8127 -7.82778 -6.29736 -119.037 29.9131 44.0179 8.91072 -1.90735e-006 9.53674e-007 62.2641 0.0746794 1.32768 15.6024 1.43051e-006 -9.53674e-007 -81.002 6.40727 27.8343 9.68174 -3.8147e-006 0 -15.8598 0.598458 -9.51446 10.6982 0 -2.86102e-006 -29.013 4.11553 0.739982 11.1504 3.8147e-006 -1.90735e-006 1.92694e-007 9.90956e-006 5.87042e-008 6.5151 -7.99897 -4.29089 -151.429 17.2348 24.6082 9.03709 -2.86102e-006 -1.90735e-006 103.894 -2.42045 -2.82753 18.7638 -9.53675e-007 0 -87.6132 8.60682 23.3355 10.9665 -3.8147e-006 3.8147e-006 -20.6561 -0.579887 -0.933947 10.8726 3.8147e-006 0 -19.0245 -0.0165519 -2.12335 11.2648 3.8147e-006 1.90735e-006 -3.21867e-007 -1.00584e-008 -6.48425e-009 2.71429 -8.18693 -0.209967 -137.024 32.8948 -3.67541 9.87129 3.8147e-006 3.8147e-006 62.9761 2.25678 -0.500577 21.8657 1.90735e-006 1.90735e-006 -61.8222 1.51715 4.78168 11.0011 0 -3.55271e-015 -17.4722 -0.324003 -0.792821 12.8798 -7.10542e-015 5.72205e-006 -26.449 -0.0312149 0.0716986 13.0642 3.81469e-006 -9.53674e-006 5.53005e-007 1.04701e-005 3.93345e-007 2.7143 8.18692 -0.209976 114.31 -35.6461 -25.2407 9.8713 -9.53674e-007 -1.90735e-006 -46.0439 -2.37895 -0.330715 21.8657 1.77636e-015 1.90735e-006 50.801 -1.95714 5.66215 11.0011 0 5.72205e-006 21.8709 0.348847 -0.904455 12.8798 -7.62939e-006 3.8147e-006 31.8188 0.0307205 0.0312509 13.0642 -1.42109e-014 -1.90735e-006 -5.58781e-007 8.33514e-007 9.7326e-008 6.51512 7.99896 -4.2909 109.053 -25.8424 11.4887 9.03709 9.53674e-007 -1.90735e-006 -72.1689 1.78514 -2.74611 18.7638 -2.86102e-006 0 80.2117 -13.5984 21.1937 10.9666 0 -3.55271e-015 34.3004 0.429959 -1.85658 10.8726 3.81469e-006 0 32.5081 0.0147373 -3.06095 11.2648 3.81469e-006 1.90735e-006 2.01991e-007 7.80031e-008 9.79392e-009 10.8127 7.82776 -6.29737 92.576 -37.2453 45.2329 8.91072 9.53674e-007 2.86102e-006 -42.5896 0.32046 0.766751 15.6024 2.86102e-006 9.53674e-007 58.505 -5.11018 19.1834 9.68174 1.90735e-006 -1.77636e-015 23.8123 0.078985 -11.6487 10.6982 0 -3.55271e-015 38.8145 -4.11631 -0.44144 11.1504 -3.8147e-006 -9.53674e-007 4.72697e-008 4.01501e-006 -3.31285e-009 28.5502 2.54627 -3.93738 89.995 -40.8534 50.3814 2.30267 -1.90735e-006 0 -41.2041 0.980072 -6.44296 5.31895 3.55271e-015 2.38419e-007 -12.8811 2.21495 -7.45755 9.71243 3.55271e-015 8.88179e-016 -19.1236 -0.00194511 3.10673 28.5502 -2.54612 -3.93737 89.9968 -39.1541 129.609 2.30267 -1.90735e-006 4.76837e-007 -45.2354 -1.36562 6.09542 5.31895 -3.55271e-015 -8.88179e-016 -12.0797 0.0763537 5.9293 9.71243 9.53675e-007 -5.36442e-007 -22.5615 -1.21319 0.20021 15.9737 8.03546 -8.36195 56.5593 26.2117 3.73449 16.8869 -2.38419e-006 -1.90735e-006 -51.5045 4.95735 -14.8467 8.42975 0 -9.53675e-007 -25.5911 -3.64236e-006 1.15565e-005 7.53865 -0.031208 2.09083 -7.43618 -4.90694 -12.3517 14.7806 -6.70232 -9.44365 -41.6457 -48.8016 14.5155 19.9827 1.90735e-006 -3.8147e-006 36.1933 1.1859 -25.3426 17.4553 3.8147e-006 9.53674e-007 25.0463 -3.83222 -0.105507 13.3835 -2.22654 7.39821 8.80083 1.66465 -20.5323 
-21.0852 22.6378 -0.219456 -1.32786 0.703244 0.668605 -3.49325 -8.0258 -1.11022e-016 -163.39 -84.4569 153.045 10.8127 -7.82778 -6.29736 -117.214 31.2151 42.8756 8.91072 -1.90735e-006 9.53674e-007 61.1952 0.0411044 1.29926 15.6024 1.43051e-006 -9.53674e-007 -79.1041 6.86399 28.6447 9.68174 -3.8147e-006 -3.55271e-015 -16.5419 0.538838 -9.7092 10.6982 -7.10544e-015 -2.86102e-006 -29.8731 4.11785 0.643049 11.1504 3.8147e-006 -1.90735e-006 1.92694e-007 9.90956e-006 5.87042e-008 6.5151 -7.99897 -4.29089 -150.246 17.579 24.42 9.03709 -2.86102e-006 -1.90735e-006 103.782 -2.41773 -2.82986 18.7638 -9.53675e-007 0 -87.1862 8.71408 23.4638 10.9665 -3.8147e-006 3.8147e-006 -20.824 -0.576633 -0.945412 10.8726 3.8147e-006 3.55271e-015 -19.1883 -0.0152959 -2.13464 11.2648 3.8147e-006 1.90735e-006 -3.21867e-007 -1.00583e-008 -6.48425e-009 2.71429 -8.18693 -0.209967 -137.384 33.0422 -3.68634 9.87129 3.8147e-006 3.8147e-006 63.5752 2.25 -0.505568 21.8657 1.90735e-006 1.90735e-006 -62.1983 1.83119 5.46313 11.0011 -7.10542e-015 -3.55271e-015 -17.6031 -0.322513 -0.792543 12.8798 -2.13163e-014 5.72205e-006 -26.6114 -0.0314008 0.0715759 13.0642 3.81469e-006 -9.53674e-006 5.53005e-007 1.04701e-005 3.93345e-007 2.7143 8.18692 -0.209976 117.157 -35.604 -22.1169 9.8713 -9.53674e-007 -1.90735e-006 -48.6749 -2.36329 -0.358425 21.8657 -1.59872e-014 1.90735e-006 53.3129 -2.19227 6.07383 11.0011 -6.39488e-014 5.72205e-006 21.2004 0.361126 -0.895879 12.8798 -7.62939e-006 3.8147e-006 31.0085 0.0320375 0.0346136 13.0642 -1.42109e-014 -1.90735e-006 -5.58781e-007 8.33514e-007 9.7326e-008 6.51512 7.99896 -4.2909 108.928 -24.9266 12.7925 9.03709 9.53674e-007 -1.90735e-006 -72.4376 1.79007 -2.75187 18.7638 -2.86102e-006 7.10543e-015 80.2223 -14.195 22.2023 10.9666 0 3.55271e-015 34.3804 0.427632 -1.86043 10.8726 3.81469e-006 -3.55271e-015 32.5878 0.015083 -3.06546 11.2648 3.81469e-006 1.90735e-006 2.01991e-007 7.80031e-008 9.79392e-009 10.8127 7.82776 -6.29737 90.9567 -37.572 45.3682 8.91072 9.53674e-007 2.86102e-006 -41.2214 0.335471 0.727021 15.6024 2.86102e-006 9.53674e-007 56.8067 -5.83307 20.5697 9.68174 1.90735e-006 1.06581e-014 24.0224 0.0966 -11.7043 10.6982 -7.10543e-015 -1.06581e-014 39.0685 -4.11694 -0.473721 11.1504 -3.8147e-006 -9.53674e-007 4.72697e-008 4.01501e-006 -3.31285e-009 28.5502 2.54627 -3.93738 89.995 -40.8534 50.3814 2.30267 -1.90735e-006 -1.33227e-015 -43.1421 0.943207 -5.50093 5.31895 0 2.38419e-007 -13.0699 2.08917 -7.44394 9.71243 5.32907e-015 0 -18.8695 -0.419338 2.89126 28.5502 -2.54612 -3.93737 89.9968 -39.1541 129.609 2.30267 -1.90735e-006 4.76837e-007 -45.8997 -1.41504 6.06508 5.31895 -3.55271e-015 0 -12.7385 -0.0485356 6.28973 9.71243 9.53675e-007 -5.36442e-007 -22.8386 -1.35723 0.492513 15.9737 8.03546 -8.36195 54.5105 24.6832 3.45123 16.8869 -2.38419e-006 -1.90735e-006 -49.9519 4.63602 -14.9809 8.42975 -3.55271e-015 -9.53675e-007 -24.2488 -4.53841e-006 1.10147e-005 7.53865 -0.031208 2.09083 -7.45396 -5.03971 -7.04329 14.7806 -6.70232 -9.44365 -42.0089 -48.6712 14.2309 19.9827 1.90735e-006 -3.8147e-006 36.6666 0.965302 -25.3051 17.4553 3.8147e-006 9.53674e-007 25.766 -3.82024 -0.0585384 13.3835 -2.22654 7.39821 8.80236 1.71822 -14.2756 
-21.8044 22.6378 -0.219456 -4.45698 2.20615 2.21465 -3.49325 -8.0258 0 -163.39 -84.4569 153.045 10.8127 -7.82778 -6.29736 -112.927 34.1629 39.8387 8.91072 -1.90735e-006 9.53674e-007 58.5735 -0.026283 1.22569 15.6024 1.43051e-006 -9.53674e-007 -74.5968 8.04907 30.5507 9.68174 -3.8147e-006 -1.77636e-014 -18.2108 0.400552 -10.1711 10.6982 0 -2.86102e-006 -31.9491 4.11702 0.400107 11.1504 3.8147e-006 -1.90735e-006 1.92694e-007 9.90956e-006 5.87042e-008 6.5151 -7.99897 -4.29089 -147.628 18.5265 23.7735 9.03709 -2.86102e-006 -1.90735e-006 103.396 -2.4103 -2.83528 18.7638 -9.53675e-007 3.55271e-015 -86.0934 9.01428 23.8742 10.9665 -3.8147e-006 3.8147e-006 -21.2574 -0.574762 -0.976075 10.8726 3.8147e-006 1.06581e-014 -19.6136 -0.0157188 -2.16775 11.2648 3.8147e-006 1.90735e-006 -3.21867e-007 -1.00583e-008 -6.48425e-009 2.71429 -8.18693 -0.209967 -138.217 33.3992 -3.76582 9.87129 3.8147e-006 3.8147e-006 64.7483 2.24149 -0.51424 21.8657 1.90735e-006 1.90735e-006 -62.7781 2.59445 7.11675 11.0011 -8.52651e-014 0 -17.957 -0.315134 -0.802161 12.8798 -1.42108e-014 5.72205e-006 -27.0457 -0.0304043 0.0683234 13.0642 3.81469e-006 -9.53674e-006 5.53005e-007 1.04701e-005 3.93345e-007 2.7143 8.18692 -0.209976 122.908 -34.8908 -15.5183 9.8713 -9.53674e-007 -1.90735e-006 -53.6133 -2.33192 -0.410305 21.8657 -3.73035e-014 1.90735e-006 57.9798 -2.71282 7.08396 11.0011 -2.20268e-013 5.72205e-006 19.9864 0.384631 -0.87537 12.8798 -7.62939e-006 3.8147e-006 29.527 0.03724 0.0462145 13.0642 1.42109e-014 -1.90735e-006 -5.58781e-007 8.33514e-007 9.7326e-008 6.51512 7.99896 -4.2909 108.309 -23.0278 15.392 9.03709 9.53674e-007 -1.90735e-006 -72.8848 1.80068 -2.76219 18.7638 -2.86102e-006 1.42109e-014 79.9632 -15.6324 24.5611 10.9666 0 7.10543e-015 34.696 0.422924 -1.8835 10.8726 3.81469e-006 -3.55271e-015 32.9021 0.0160451 -3.0827 11.2648 3.81469e-006 1.90735e-006 2.01991e-007 7.80031e-008 9.79392e-009 10.8127 7.82776 -6.29737 87.0404 -38.3981 45.0937 8.91072 9.53674e-007 2.86102e-006 -38.4549 0.364799 0.653172 15.6024 2.86102e-006 9.53674e-007 53.4233 -7.51285 23.8899 9.68174 1.90735e-006 1.42109e-014 24.2463 0.115214 -11.7597 10.6982 7.10543e-015 -3.55271e-015 39.3432 -4.11576 -0.508835 11.1504 -3.8147e-006 -9.53674e-007 4.72697e-008 4.01501e-006 -3.31285e-009 28.5502 2.54627 -3.93738 89.995 -40.8534 50.3814 2.30267 -1.90735e-006 8.88178e-016 -47.1815 0.866175 -3.38135 5.31895 0 2.38419e-007 -13.5206 1.82132 -7.3762 9.71243 -8.88179e-015 -8.88179e-016 -18.3392 -1.3097 2.42809 28.5502 -2.54612 -3.93737 89.9968 -39.1541 129.609 2.30267 -1.90735e-006 4.76837e-007 -47.246 -1.50665 5.92182 5.31895 7.10543e-015 8.88179e-016 -14.2554 -0.336263 7.00064 9.71243 9.53675e-007 -5.36442e-007 -23.3993 -1.67014 1.09713 15.9737 8.03546 -8.36195 49.7855 21.6637 3.01865 16.8869 -2.38419e-006 -1.90735e-006 -47.2001 3.90247 -15.1513 8.42975 0 -9.53675e-007 -21.4365 -7.52587e-007 1.51231e-006 7.53865 -0.031208 2.09083 -7.45038 -5.13743 4.27965 14.7806 -6.70232 -9.44365 -42.9216 -48.525 13.5051 19.9827 1.90735e-006 -3.8147e-006 37.9169 0.386924 -25.2074 17.4553 3.8147e-006 9.53674e-007 27.6678 -3.79233 0.0621377 13.3835 -2.22654 7.39821 8.79874 1.76608 -0.935699 
-22.8297 22.6378 -0.219456 -8.33366 3.79734 4.0507 -3.49325 -8.0258 0 -163.39 -84.4569 153.045 10.8127 -7.82778 -6.29736 -107.151 37.4971 35.8085 8.91072 -1.90735e-006 9.53674e-007 54.4365 -0.123471 1.10567 15.6024 1.43051e-006 -9.53674e-007 -67.9976 9.63087 32.7552 9.68174 -3.8147e-006 -7.10543e-015 -20.293 0.223793 -10.7299 10.6982 0 -2.86102e-006 -34.5233 4.1153 0.088345 11.1504 3.8147e-006 -1.90735e-006 1.92694e-007 9.90956e-006 5.87042e-008 6.5151 -7.99897 -4.29089 -144.116 19.4909 23.0476 9.03709 -2.86102e-006 -1.90735e-006 102.827 -2.40058 -2.84173 18.7638 -9.53675e-007 3.55271e-015 -84.8613 9.20221 24.1173 10.9665 -3.8147e-006 3.8147e-006 -21.5422 -0.569065 -0.994682 10.8726 3.8147e-006 1.42109e-014 -19.8941 -0.0136749 -2.18966 11.2648 3.8147e-006 1.90735e-006 -3.21867e-007 -1.00584e-008 -6.48424e-009 2.71429 -8.18693 -0.209967 -139.323 33.6542 -3.48839 9.87129 3.8147e-006 3.8147e-006 66.4252 2.22484 -0.528625 21.8657 1.90735e-006 1.90735e-006 -63.5777 3.5523 9.05847 11.0011 -1.56319e-013 0 -18.4634 -0.306077 -0.810771 12.8798 -2.84217e-014 5.72205e-006 -27.6648 -0.0299419 0.0657044 13.0642 3.81469e-006 -9.53674e-006 5.53005e-007 1.04701e-005 3.93345e-007 2.7143 8.18692 -0.209976 128.669 -33.165 -8.14853 9.8713 -9.53674e-007 -1.90735e-006 -58.8772 -2.29298 -0.462825 21.8657 -5.15143e-014 1.90735e-006 62.947 -3.24768 8.22982 11.0011 -3.55271e-013 5.72205e-006 18.7768 0.40874 -0.850243 12.8798 -7.6294e-006 3.8147e-006 28.0466 0.0408013 0.05611 13.0642 -1.42109e-014 -1.90735e-006 -5.58781e-007 8.33513e-007 9.7326e-008 6.51512 7.99896 -4.2909 106.572 -20.8993 18.0688 9.03709 9.53674e-007 -1.90735e-006 -72.824 1.79713 -2.76033 18.7638 -2.86102e-006 4.9738e-014 78.6861 -17.5437 27.5155 10.9666 -1.42108e-014 1.06581e-014 35.3565 0.417038 -1.92788 10.8726 3.81469e-006 2.84217e-014 33.5596 0.0160518 -3.12097 11.2648 3.81469e-006 1.90735e-006 2.01991e-007 7.80031e-008 9.79392e-009 10.8127 7.82776 -6.29737 81.2368 -39.8583 43.5839 8.91072 9.53674e-007 2.86102e-006 -33.779 0.403871 0.535621 15.6024 2.86102e-006 9.53674e-007 47.8933 -9.71302 28.16 9.68174 1.90735e-006 2.84217e-014 24.5566 0.141194 -11.841 10.6982 -7.10543e-015 0 39.7172 -4.11666 -0.555172 11.1504 -3.8147e-006 -9.53674e-007 4.72697e-008 4.01501e-006 -3.31285e-009 28.5502 2.54627 -3.93738 89.995 -40.8534 50.3814 2.30267 -1.90735e-006 0 -51.2426 0.78662 -0.960885 5.31895 0 2.38419e-007 -14.0998 1.55308 -7.2102 9.71243 -3.55271e-015 2.66454e-015 -17.8163 -2.21232 1.96176 28.5502 -2.54612 -3.93737 89.9968 -39.1541 129.609 2.30267 -1.90735e-006 4.76837e-007 -48.8293 -1.62658 5.58695 5.31895 -3.55271e-015 -2.66454e-015 -16.0719 -0.679158 7.8325 9.71243 9.53675e-007 -5.36442e-007 -24.0473 -2.06134 1.80331 15.9737 8.03546 -8.36195 44.0753 18.1425 2.48759 16.8869 -2.38419e-006 -1.90735e-006 -44.0853 3.01916 -15.3236 8.42975 -7.10543e-015 -9.53675e-007 -18.1172 -4.03168e-006 1.0738e-005 7.53865 -0.031208 2.09083 -7.43315 -5.02551 15.7147 14.7806 -6.70232 -9.44365 -44.3688 -48.3558 12.3569 19.9827 1.90735e-006 -3.8147e-006 39.8078 -0.491233 -25.0684 17.4553 3.8147e-006 9.53674e-007 30.5404 -3.75029 0.248022 13.3835 -2.22654 7.39821 8.79661 1.71611 12.5362 
